<svg width="32" height="32" viewBox="0 0 32 32" fill="none" xmlns="http://www.w3.org/2000/svg">
<path d="M16 8C14.6094 8.00176 13.2762 8.55496 12.2929 9.53827C11.3096 10.5216 10.7564 11.8547 10.7547 13.2453H13.4213C13.4213 11.8227 14.5787 10.6667 16 10.6667C17.4213 10.6667 18.5787 11.8227 18.5787 13.2453C18.5787 14.0427 17.9373 14.6213 16.9573 15.4133C16.6372 15.6641 16.3297 15.9307 16.036 16.212C14.7053 17.5413 14.6667 18.9533 14.6667 19.1107V20H17.3333L17.332 19.156C17.3333 19.1347 17.376 18.6413 17.92 18.0987C18.12 17.8987 18.372 17.6987 18.6333 17.488C19.672 16.6467 21.244 15.376 21.244 13.2453C21.2429 11.8547 20.6902 10.5214 19.707 9.53796C18.7238 8.55454 17.3906 8.00141 16 8ZM14.6667 21.3333H17.3333V24H14.6667V21.3333Z" fill="white"/>
<path d="M16 2.66666C8.648 2.66666 2.66666 8.64799 2.66666 16C2.66666 23.352 8.648 29.3333 16 29.3333C23.352 29.3333 29.3333 23.352 29.3333 16C29.3333 8.64799 23.352 2.66666 16 2.66666ZM16 26.6667C10.1187 26.6667 5.33333 21.8813 5.33333 16C5.33333 10.1187 10.1187 5.33332 16 5.33332C21.8813 5.33332 26.6667 10.1187 26.6667 16C26.6667 21.8813 21.8813 26.6667 16 26.6667Z" fill="white"/>
</svg>
